<svg xmlns="http://www.w3.org/2000/svg" width="24" height="24" viewBox="0 0 24 24" fill="none" stroke="currentColor" stroke-width="2" stroke-linecap="round" stroke-linejoin="round" class="lucide lucide-brain-circuit"><path d="M12 5a3 3 0 1 0-5.9-1.4"/><path d="M18.34 4.66A3 3 0 1 0 12.4 8.5"/><path d="M12 13a3 3 0 1 0 5.9 1.4"/><path d="M5.66 19.34A3 3 0 1 0 11.6 15.5"/><path d="M12 5a3 3 0 0 0-3 3v0a3 3 0 0 0 3 3h0a3 3 0 0 1 3 3v0a3 3 0 0 1-3 3"/><path d="M12 13h0a3 3 0 0 0-3-3v0a3 3 0 0 0-3-3"/><path d="M2.5 10.5a3 3 0 1 1 5 0 3 3 0 1 1-5 0Z"/><path d="M21.5 13.5a3 3 0 1 1-5 0 3 3 0 1 1 5 0Z"/></svg>